<?xml version="1.0" encoding="utf-8"?>
<!-- Generator: Adobe Illustrator 18.0.0, SVG Export Plug-In . SVG Version: 6.00 Build 0)  -->
<!DOCTYPE svg PUBLIC "-//W3C//DTD SVG 1.1//EN" "http://www.w3.org/Graphics/SVG/1.1/DTD/svg11.dtd">
<svg version="1.1" xmlns="http://www.w3.org/2000/svg" xmlns:xlink="http://www.w3.org/1999/xlink" x="0px" y="0px"
	 viewBox="0 0 612 414" enable-background="new 0 0 612 414" xml:space="preserve">
<g id="Layer_3" display="none">
	<rect x="-15.1" y="-1.7" display="inline" fill="#4065B0" width="629.9" height="417.1"/>
</g>
<g id="Nuvem">
	<path id="nuvem_1_" fill="#373B47" d="M364.7,96.6c0,0-21.7-43.3-74.5-44s-69.1,31.1-80.6,52.1c-36.8-8.3-58.9,10.2-67.7,44
		c0,0-94.1,4.7-94.1,94.1c0,96.8,117.8,83.7,117.8,83.7s25.7,46.3,93.4,46.3s84.6-27.8,84.6-27.8s29.1,31.1,77.9,21.7
		c45.6-8.9,54.8-37.2,54.8-37.2s93,13.4,93-76.7c0-79.9-72-83.1-72-83.1S480.5,79,364.7,96.6z"/>
	<path id="nuvem" fill="#FFFFFF" stroke="#FFFFFF" stroke-miterlimit="10" d="M365,83.6c0,0-21.7-43.3-74.5-44
		c-52.8-0.7-69.1,31.1-80.6,52.1c-36.8-8.3-58.9,10.2-67.7,44c0,0-94.1,4.7-94.1,94.1c0,96.8,117.8,83.7,117.8,83.7
		s25.7,46.3,93.4,46.3s84.6-27.8,84.6-27.8s29.1,31.1,77.9,21.7c45.6-8.9,54.8-37.2,54.8-37.2s93,13.4,93-76.7
		c0-79.9-72-83.1-72-83.1S480.8,66,365,83.6z"/>
</g>
<g id="Impresora">
	<polygon fill="#373B47" points="247.6,104.7 247.6,150.3 231.4,150.3 208.4,189.5 199.8,194.5 199.8,221 210.1,221 210.1,257.8 
		413.9,257.8 413.9,221.7 423.5,221.7 423.1,194.5 415.8,189.1 390.3,150.3 374.2,150.3 374.2,130.5 348.4,104.7 	"/>
	<polygon fill="#373B47" points="246.9,271 246.9,313.5 374.2,313.5 374.2,271 360.2,271 360.2,302.7 261.1,302.7 261.1,271 	"/>
	<rect x="221.4" y="199.7" fill="#FFFFFF" width="24.7" height="14.1"/>
	<rect x="250.7" y="199.7" fill="#FFFFFF" width="14.5" height="14.1"/>
	<polygon fill="#FFFFFF" points="265.2,118.7 265.2,187.2 359.4,187.2 359.4,152.9 340.3,152.9 325.3,138 325.3,118.7 	"/>
	<polygon fill="#FFFFFF" points="335.3,118.7 335.3,137 340.5,142.2 359.4,142.2 	"/>
	<rect x="281.1" y="152.9" fill="#373B47" width="33.4" height="4.7"/>
	<rect x="281.1" y="168.3" fill="#373B47" width="63" height="8.5"/>
</g>
</svg>
